# xmcd CD database file
#
# Track frame offsets:
#	150
#	17568
#	42980
#	64739
#	80595
#	100423
#	120030
#	137539
#	153851
#	179376
#	198643
#	214879
#	237204
#
# Disc length: 3361 seconds
#
# Revision: 0
# Processed by: cddbd v1.5.1PL0 Copyright (c) Steve Scherf et al.
# Submitted via: CDex 1.51
#
DISCID=a80d1f0d
DTITLE=Sac à Pulses (www.sacapulses.com) - Les Pulses
DYEAR=1995
DGENRE=Jazz
TTITLE0=Down In Honky Tonk Town
TTITLE1=Docteur Jazz (Doctor Jazz)
TTITLE2=Shake It And Break It
TTITLE3=Les Pulses (My Blue Heaven)
TTITLE4=Someday, You'll Be Sorry
TTITLE5=Susie Of The Islands
TTITLE6=La Groupie du Tuba (Papa De Da Da)
TTITLE7=The Chant (Spooky Serenade)
TTITLE8=Breeze
TTITLE9=Way Down Yonder In New Orleans
TTITLE10=Black Bottom Stomp
TTITLE11=Lonely Melody
TTITLE12=Cakewalking Babies From Home
EXTD=YEAR: 1995
EXTT0=
EXTT1=
EXTT2=
EXTT3=
EXTT4=
EXTT5=
EXTT6=
EXTT7=
EXTT8=
EXTT9=
EXTT10=
EXTT11=
EXTT12=
PLAYORDER=
